<svg width="1280" height="640" viewBox="0 0 1280 640" fill="none" xmlns="http://www.w3.org/2000/svg" role="img" aria-labelledby="title desc">
  <title id="title">BRIDLE GitHub social preview</title>
  <desc id="desc">A black retro pixel-art GitHub repository preview for BRIDLE with the mascot mark and product tagline.</desc>
  <rect width="1280" height="640" fill="#030303"/>
  <g opacity=".15">
    <path d="M0 40h1280M0 112h1280M0 184h1280M0 256h1280M0 328h1280M0 400h1280M0 472h1280M0 544h1280M0 616h1280" stroke="#fff" stroke-width="2"/>
    <path d="M64 0v640M160 0v640M256 0v640M352 0v640M448 0v640M544 0v640M640 0v640M736 0v640M832 0v640M928 0v640M1024 0v640M1120 0v640M1216 0v640" stroke="#fff" stroke-width="1"/>
  </g>
  <g shape-rendering="crispEdges" transform="translate(114 84) scale(.72)">
    <path d="M456 208h112v16h32v16h32v32h32v48h16v160h-48v48h-48v-48H440v48h-48v-48h-48V320h16v-48h32v-32h32v-16h32v-16Z" fill="#F7F7F2"/>
    <path d="M456 240h112v16h32v32h32v64h16v112h-32v48h-32v-64H440v64h-32v-48h-32V352h16v-64h32v-32h32v-16Z" fill="#E9E9E4"/>
    <path d="M472 248h80v16h32v16h16v32h-32v-16h-32v-16h-48v16h-32v16h-32v-32h16v-16h32v-16Z" fill="#050505"/>
    <path d="M440 320h144v32h16v96h-16v32H440v-32h-16v-96h16v-32Z" fill="#F4C7AE"/>
    <path d="M440 304h144v48h-16v-16h-16v32h-16v-32h-16v48h-16v-48h-16v32h-16v-32h-16v16h-16v-48Z" fill="#050505"/>
    <path d="M456 368h32v64h-32v-64ZM536 368h32v64h-32v-64Z" fill="#050505"/>
    <path d="M472 384h16v32h-16v-32ZM552 384h16v32h-16v-32Z" fill="#fff"/>
    <path d="M504 440h32v48h-32v-48Z" fill="#050505"/>
    <path d="M512 448h16v32h-16v-32Z" fill="#FF6F6F"/>
    <path d="M424 424h16v16h-16v-16ZM584 424h16v16h-16v-16ZM408 392h16v32h-16v-32ZM600 392h16v32h-16v-32Z" fill="#F4C7AE"/>
    <path d="M424 512h176v48h32v48h16v64H376v-64h16v-48h32v-48Z" fill="#F7F7F2"/>
    <path d="M440 528h144v32h-16v16h-32v-16h-48v16h-32v-16h-16v-32Z" fill="#fff"/>
    <path d="M408 608h208v32h32v48h-32v16H408v-16h-32v-48h32v-32Z" fill="#fff"/>
    <path d="M360 672h304v32h-16v32H376v-32h-16v-32Z" fill="#F7F7F2"/>
    <path d="M408 736h208v16h-32v16H440v-16h-32v-16Z" fill="#D9D9D4"/>
    <path d="M392 544h-32v16h-16v32h32v-16h16v-32ZM632 544h32v16h16v32h-32v-16h-16v-32Z" fill="#fff"/>
  </g>
  <g transform="translate(590 156)">
    <text x="0" y="0" fill="#fff" font-family="'Courier New', monospace" font-size="104" font-weight="700" letter-spacing="16">BRIDLE</text>
    <rect x="3" y="42" width="548" height="4" fill="#fff"/>
    <text x="2" y="104" fill="#fff" font-family="'Courier New', monospace" font-size="30" font-weight="700" letter-spacing="5">BIND YOUR DIGITAL RESOURCES</text>
    <text x="2" y="158" fill="#A1A1AA" font-family="'Courier New', monospace" font-size="24" font-weight="700" letter-spacing="2">AGENTS · GPUS · APIS · PCS · WALLETS · DATASETS</text>
    <g transform="translate(2 210)">
      <rect x="0" y="0" width="154" height="54" fill="#fff"/>
      <text x="22" y="35" fill="#030303" font-family="'Courier New', monospace" font-size="24" font-weight="700" letter-spacing="3">ROUTE</text>
      <rect x="178" y="0" width="154" height="54" stroke="#fff" stroke-width="3"/>
      <text x="199" y="35" fill="#fff" font-family="'Courier New', monospace" font-size="24" font-weight="700" letter-spacing="3">EARN</text>
      <rect x="356" y="0" width="202" height="54" stroke="#fff" stroke-width="3"/>
      <text x="378" y="35" fill="#fff" font-family="'Courier New', monospace" font-size="24" font-weight="700" letter-spacing="3">SETTLE</text>
    </g>
  </g>
</svg>
